<?xml version="1.0" encoding="utf-8"?>
<!DOCTYPE svg PUBLIC "-//W3C//DTD SVG 1.1//EN" "http://www.w3.org/Graphics/SVG/1.1/DTD/svg11.dtd">
<svg xmlns="http://www.w3.org/2000/svg" xmlns:xlink="http://www.w3.org/1999/xlink" version="1.1" height="1216.19" width="2178.18" viewBox="-.2 -236 2178.99 1216.19">
<!-- SVG-cards 2.0.1								-->
<!-- This set of SVG files is a complete cards game with figures, numbers	-->
<!--	and backs of cards completely designed in SVG.				-->
<!--										-->
<!--	Copyright (C) 2005 David Bellot						-->
<!--										-->
<!--	This library is free software; you can redistribute it and/or		-->
<!--	modify it under the terms of the GNU Lesser General Public		-->
<!--	License as published by the Free Software Foundation; either		-->
<!--	version 2 of the License, or (at your option) any later version		-->
<!--										-->
<!--	This library is distributed in the hope that it will be useful,		-->
<!--	but WITHOUT ANY WARRANTY; without even the implied warranty of		-->
<!--	MERCHANTABILITY or FITNESS FOR A PARTICULAR PURPOSE.  See the GNU	-->
<!--	Lesser General Public License for more details.				-->
<!--										-->
<!--	You should have received a copy of the GNU Lesser General Public	-->
<!--	License along with this library; if not, write to the Free Software	-->
<!--	Foundation, Inc., 59 Temple Place, Suite 330, Boston, MA 02111-1307  USA-->
<!--                                                                            -->
<!--	Contact the author David Bellot at david.bellot@free.fr			-->
<defs> 	
</defs>

<g x="0" y="0">

  <g xmlns="http://www.w3.org/2000/svg" id="jack_heart"> <use xmlns:xlink="http://www.w3.org/1999/xlink" xlink:href="#base" x="1675.75" y="486.275"/> <g fill="none" stroke="black" stroke-width="1"> <path d="M 1684.88 311.157L1684.88 488.545"/> <path d="M 1684.88 488.545L1816.03 488.545"/> <path d="M 1834.2 432.245L1834.2 254.607"/> <path d="M 1834.2 254.607L1703.05 254.607"/> </g> <g> <use xmlns:xlink="http://www.w3.org/1999/xlink" xlink:href="#heart" x="713.264" y="117.357" transform="scale(2.4) rotate(180,713.264,117.357)"/> <rect x="1693.33" y="262.673" width="9.69257" height="37.968" fill="white"/> </g> <g> <use xmlns:xlink="http://www.w3.org/1999/xlink" xlink:href="#heart" x="753.017" y="192.34" transform="scale(2.4)"/> <rect x="1816.49" y="442.632" width="9.69257" height="37.968" fill="white"/> </g> <g transform="rotate(-1.80,1759.54,371.576)"> <line x1="1718.98" y1="430.417" x2="1800.09" y2="312.736" stroke="black" stroke-width="7.25"/> <circle cx="1721.4" cy="427.358" r="2.2" fill="white"/> <circle cx="1721.4" cy="427.358" r=".7" fill="black"/> <circle cx="1724.73" cy="422.523" r="2.2" fill="white"/> <circle cx="1724.73" cy="422.523" r=".7" fill="black"/> <circle cx="1728.07" cy="417.689" r="2.2" fill="white"/> <circle cx="1728.07" cy="417.689" r=".7" fill="black"/> <circle cx="1731.4" cy="412.854" r="2.2" fill="white"/> <circle cx="1731.4" cy="412.854" r=".7" fill="black"/> <circle cx="1734.73" cy="408.019" r="2.2" fill="white"/> <circle cx="1734.73" cy="408.019" r=".7" fill="black"/> <circle cx="1738.06" cy="403.184" r="2.2" fill="white"/> <circle cx="1738.06" cy="403.184" r=".7" fill="black"/> <circle cx="1741.4" cy="398.35" r="2.2" fill="white"/> <circle cx="1741.4" cy="398.35" r=".7" fill="black"/> <circle cx="1744.73" cy="393.515" r="2.2" fill="white"/> <circle cx="1744.73" cy="393.515" r=".7" fill="black"/> <circle cx="1748.06" cy="388.68" r="2.2" fill="white"/> <circle cx="1748.06" cy="388.68" r=".7" fill="black"/> <circle cx="1751.39" cy="383.845" r="2.2" fill="white"/> <circle cx="1751.39" cy="383.845" r=".7" fill="black"/> <circle cx="1754.72" cy="379.011" r="2.2" fill="white"/> <circle cx="1754.72" cy="379.011" r=".7" fill="black"/> <circle cx="1758.06" cy="374.176" r="2.2" fill="white"/> <circle cx="1758.06" cy="374.176" r=".7" fill="black"/> <circle cx="1761.39" cy="369.341" r="2.2" fill="white"/> <circle cx="1761.39" cy="369.341" r=".7" fill="black"/> <circle cx="1764.72" cy="364.506" r="2.2" fill="white"/> <circle cx="1764.72" cy="364.506" r=".7" fill="black"/> <circle cx="1768.05" cy="359.672" r="2.2" fill="white"/> <circle cx="1768.05" cy="359.672" r=".7" fill="black"/> <circle cx="1771.39" cy="354.837" r="2.2" fill="white"/> <circle cx="1771.39" cy="354.837" r=".7" fill="black"/> <circle cx="1774.72" cy="350.002" r="2.2" fill="white"/> <circle cx="1774.72" cy="350.002" r=".7" fill="black"/> <circle cx="1778.05" cy="345.167" r="2.2" fill="white"/> <circle cx="1778.05" cy="345.167" r=".7" fill="black"/> <circle cx="1781.38" cy="340.333" r="2.2" fill="white"/> <circle cx="1781.38" cy="340.333" r=".7" fill="black"/> <circle cx="1784.71" cy="335.498" r="2.2" fill="white"/> <circle cx="1784.71" cy="335.498" r=".7" fill="black"/> <circle cx="1788.05" cy="330.663" r="2.2" fill="white"/> <circle cx="1788.05" cy="330.663" r=".7" fill="black"/> <circle cx="1791.38" cy="325.828" r="2.2" fill="white"/> <circle cx="1791.38" cy="325.828" r=".7" fill="black"/> <circle cx="1794.71" cy="320.994" r="2.2" fill="white"/> <circle cx="1794.71" cy="320.994" r=".7" fill="black"/> <circle cx="1798.04" cy="316.159" r="2.2" fill="white"/> <circle cx="1798.04" cy="316.159" r=".7" fill="black"/> </g> <use xmlns:xlink="http://www.w3.org/1999/xlink" xlink:href="#jack" x="1684.78" y="282.927" style="fill:#e6180a"/> <use xmlns:xlink="http://www.w3.org/1999/xlink" xlink:href="#jack" x="1834.3" y="460.225" transform="rotate(180,1834.3,460.225)" style="fill:#e6180a"/> <use xmlns:xlink="http://www.w3.org/1999/xlink" xlink:href="#heart" x="1689.4" y="301.157" transform="rotate(180,1689.4,301.157)"/> <use xmlns:xlink="http://www.w3.org/1999/xlink" xlink:href="#heart" x="1829.67" y="441.995"/> <use xmlns:xlink="http://www.w3.org/1999/xlink" xlink:href="#jack_2" transform="matrix(0.990001,0.000000,0.000000,0.990000,1451.738,301.8314)" id="use1589" x="0.0000000" y="0.0000000" width="2178.4751" height="1215.6875"/> <use xmlns:xlink="http://www.w3.org/1999/xlink" xlink:href="#jack_2" transform="matrix(-0.990000,-2.043122e-4,2.043122e-4,-0.990000,2067.342,441.4238)" id="use1590" x="0.0000000" y="0.0000000" width="2178.4751" height="1215.6875"/> </g>
    

  
  
</g>

</svg>



  
